<mxfile host="Electron" modified="2023-12-22T23:06:54.906Z" agent="Mozilla/5.0 (Windows NT 10.0; Win64; x64) AppleWebKit/537.36 (KHTML, like Gecko) draw.io/22.1.11 Chrome/114.0.5735.289 Electron/25.9.8 Safari/537.36" etag="_CWnS9rlj4_hr-XcpgLj" version="22.1.11" type="device">
  <diagram name="Страница — 1" id="lv10cQyV4SGocFgkHS0M">
    <mxGraphModel dx="2074" dy="1245" grid="1" gridSize="10" guides="1" tooltips="1" connect="1" arrows="1" fold="1" page="1" pageScale="1" pageWidth="827" pageHeight="1169" math="0" shadow="0">
      <root>
        <mxCell id="0" />
        <mxCell id="1" parent="0" />
        <mxCell id="e3r6Bh3KquyBipIAQHDy-3" style="edgeStyle=orthogonalEdgeStyle;rounded=0;orthogonalLoop=1;jettySize=auto;html=1;entryX=0.5;entryY=0;entryDx=0;entryDy=0;" edge="1" parent="1" source="e3r6Bh3KquyBipIAQHDy-1" target="e3r6Bh3KquyBipIAQHDy-2">
          <mxGeometry relative="1" as="geometry" />
        </mxCell>
        <mxCell id="e3r6Bh3KquyBipIAQHDy-1" value="Начало&lt;br&gt;runUI" style="ellipse;whiteSpace=wrap;html=1;" vertex="1" parent="1">
          <mxGeometry x="354" y="10" width="120" height="80" as="geometry" />
        </mxCell>
        <mxCell id="e3r6Bh3KquyBipIAQHDy-5" style="edgeStyle=orthogonalEdgeStyle;rounded=0;orthogonalLoop=1;jettySize=auto;html=1;entryX=0.5;entryY=0;entryDx=0;entryDy=0;" edge="1" parent="1" source="e3r6Bh3KquyBipIAQHDy-2" target="e3r6Bh3KquyBipIAQHDy-4">
          <mxGeometry relative="1" as="geometry" />
        </mxCell>
        <mxCell id="e3r6Bh3KquyBipIAQHDy-2" value="Очистка экрана" style="rounded=0;whiteSpace=wrap;html=1;" vertex="1" parent="1">
          <mxGeometry x="354" y="110" width="120" height="60" as="geometry" />
        </mxCell>
        <mxCell id="e3r6Bh3KquyBipIAQHDy-8" style="edgeStyle=orthogonalEdgeStyle;rounded=0;orthogonalLoop=1;jettySize=auto;html=1;entryX=0.5;entryY=1;entryDx=0;entryDy=0;" edge="1" parent="1" source="e3r6Bh3KquyBipIAQHDy-4" target="e3r6Bh3KquyBipIAQHDy-7">
          <mxGeometry relative="1" as="geometry" />
        </mxCell>
        <mxCell id="e3r6Bh3KquyBipIAQHDy-4" value="Цикл меню&lt;br&gt;initMainMenu != -1" style="shape=loopLimit;whiteSpace=wrap;html=1;" vertex="1" parent="1">
          <mxGeometry x="364" y="190" width="100" height="80" as="geometry" />
        </mxCell>
        <mxCell id="e3r6Bh3KquyBipIAQHDy-10" style="edgeStyle=orthogonalEdgeStyle;rounded=0;orthogonalLoop=1;jettySize=auto;html=1;entryX=0.5;entryY=0;entryDx=0;entryDy=0;" edge="1" parent="1" source="e3r6Bh3KquyBipIAQHDy-7" target="e3r6Bh3KquyBipIAQHDy-9">
          <mxGeometry relative="1" as="geometry" />
        </mxCell>
        <mxCell id="e3r6Bh3KquyBipIAQHDy-7" value="Цикл меню" style="shape=loopLimit;whiteSpace=wrap;html=1;direction=west;" vertex="1" parent="1">
          <mxGeometry x="364" y="290" width="100" height="80" as="geometry" />
        </mxCell>
        <mxCell id="e3r6Bh3KquyBipIAQHDy-9" value="Очищение интерфейса" style="rounded=0;whiteSpace=wrap;html=1;" vertex="1" parent="1">
          <mxGeometry x="354" y="390" width="120" height="60" as="geometry" />
        </mxCell>
        <mxCell id="e3r6Bh3KquyBipIAQHDy-11" value="Конец" style="ellipse;whiteSpace=wrap;html=1;" vertex="1" parent="1">
          <mxGeometry x="354" y="470" width="120" height="80" as="geometry" />
        </mxCell>
      </root>
    </mxGraphModel>
  </diagram>
</mxfile>
